<?xml version="1.0" encoding="UTF-8" standalone="no"?>
<svg
   xmlns:osb="http://www.openswatchbook.org/uri/2009/osb"
   xmlns:dc="http://purl.org/dc/elements/1.1/"
   xmlns:cc="http://creativecommons.org/ns#"
   xmlns:rdf="http://www.w3.org/1999/02/22-rdf-syntax-ns#"
   xmlns:svg="http://www.w3.org/2000/svg"
   xmlns="http://www.w3.org/2000/svg"
   xmlns:sodipodi="http://sodipodi.sourceforge.net/DTD/sodipodi-0.dtd"
   xmlns:inkscape="http://www.inkscape.org/namespaces/inkscape"
   version="1.0"
   width="731.29163"
   height="239.99527"
   viewBox="0 0 7312.9163 2399.9527"
   preserveAspectRatio="xMidYMid meet"
   id="svg21"
   sodipodi:docname="retrobat_logo_b.svg"
   inkscape:version="1.0.1 (3bc2e813f5, 2020-09-07)">
  <metadata
     id="metadata27">
    <rdf:RDF>
      <cc:Work
         rdf:about="">
        <dc:format>image/svg+xml</dc:format>
        <dc:type
           rdf:resource="http://purl.org/dc/dcmitype/StillImage" />
        <dc:title></dc:title>
      </cc:Work>
    </rdf:RDF>
  </metadata>
  <defs
     id="defs25">
    <marker
       style="overflow:visible"
       id="Arrow1Lstart"
       refX="0"
       refY="0"
       orient="auto"
       inkscape:stockid="Arrow1Lstart"
       inkscape:isstock="true">
      <path
         transform="matrix(0.8,0,0,0.8,10,0)"
         style="fill-rule:evenodd;stroke:#000000;stroke-width:1pt"
         d="M 0,0 5,-5 -12.5,0 5,5 Z"
         id="path1033" />
    </marker>
    <linearGradient
       id="linearGradient847"
       osb:paint="solid">
      <stop
         style="stop-color:#000000;stop-opacity:1;"
         offset="0"
         id="stop845" />
    </linearGradient>
    <filter
       style="color-interpolation-filters:sRGB"
       inkscape:label="Drop Shadow"
       id="filter4892">
      <feFlood
         flood-opacity="0.498039"
         flood-color="rgb(0,0,0)"
         result="flood"
         id="feFlood4882" />
      <feComposite
         in="flood"
         in2="SourceGraphic"
         operator="in"
         result="composite1"
         id="feComposite4884" />
      <feGaussianBlur
         in="composite1"
         stdDeviation="3"
         result="blur"
         id="feGaussianBlur4886" />
      <feOffset
         dx="6"
         dy="6"
         result="offset"
         id="feOffset4888" />
      <feComposite
         in="SourceGraphic"
         in2="offset"
         operator="over"
         result="composite2"
         id="feComposite4890" />
    </filter>
    <filter
       style="color-interpolation-filters:sRGB"
       inkscape:label="Drop Shadow"
       id="filter4892-2"
       x="-0.0025035006"
       width="1.005007"
       y="-0.0084643271"
       height="1.0169287">
      <feFlood
         flood-opacity="0.498039"
         flood-color="rgb(0,0,0)"
         result="flood"
         id="feFlood4882-4" />
      <feComposite
         in="flood"
         in2="SourceGraphic"
         operator="in"
         result="composite1"
         id="feComposite4884-0" />
      <feGaussianBlur
         in="composite1"
         stdDeviation="4.5252686"
         result="blur"
         id="feGaussianBlur4886-4" />
      <feOffset
         dx="6"
         dy="6"
         result="offset"
         id="feOffset4888-1" />
      <feComposite
         in="SourceGraphic"
         in2="offset"
         operator="over"
         result="composite2"
         id="feComposite4890-3" />
    </filter>
    <filter
       inkscape:collect="always"
       style="color-interpolation-filters:sRGB"
       id="filter5153"
       x="-0.0012822407"
       width="1.0025645"
       y="-0.021129293"
       height="1.0422586">
      <feGaussianBlur
         inkscape:collect="always"
         stdDeviation="2.6576966"
         id="feGaussianBlur5155" />
    </filter>
    <filter
       style="color-interpolation-filters:sRGB"
       inkscape:label="Drop Shadow"
       id="filter4892-2-8"
       x="-0.0027164719"
       width="1.0054328"
       y="-0.0091843829"
       height="1.0183688">
      <feFlood
         flood-opacity="0.498039"
         flood-color="rgb(0,0,0)"
         result="flood"
         id="feFlood4882-4-5" />
      <feComposite
         in="flood"
         in2="SourceGraphic"
         operator="in"
         result="composite1"
         id="feComposite4884-0-8" />
      <feGaussianBlur
         in="composite1"
         stdDeviation="4.9102306"
         result="blur"
         id="feGaussianBlur4886-4-2" />
      <feOffset
         dx="6"
         dy="6"
         result="offset"
         id="feOffset4888-1-8" />
      <feComposite
         in="SourceGraphic"
         in2="offset"
         operator="over"
         result="composite2"
         id="feComposite4890-3-4" />
    </filter>
    <filter
       inkscape:collect="always"
       style="color-interpolation-filters:sRGB"
       id="filter5153-3"
       x="-0.0012822407"
       width="1.0025645"
       y="-0.021129293"
       height="1.0422586">
      <feGaussianBlur
         inkscape:collect="always"
         stdDeviation="2.6576966"
         id="feGaussianBlur5155-8" />
    </filter>
  </defs>
  <sodipodi:namedview
     pagecolor="#ffffff"
     bordercolor="#666666"
     borderopacity="1"
     objecttolerance="10"
     gridtolerance="10"
     guidetolerance="10"
     inkscape:pageopacity="0"
     inkscape:pageshadow="2"
     inkscape:window-width="1904"
     inkscape:window-height="1041"
     id="namedview23"
     showgrid="false"
     inkscape:zoom="2.0000001"
     inkscape:cx="415.4166"
     inkscape:cy="125.75148"
     inkscape:window-x="0"
     inkscape:window-y="0"
     inkscape:window-maximized="0"
     inkscape:current-layer="layer101"
     inkscape:document-rotation="0"
     fit-margin-top="0"
     fit-margin-left="0"
     fit-margin-right="0"
     fit-margin-bottom="0" />
  <g
     id="layer101"
     fill="#3a719a"
     fill-rule="evenodd"
     transform="translate(-759.84355,-98.51553)">
    <rect
       style="fill:#000000;fill-opacity:0.439216;fill-rule:nonzero;stroke-width:13.2939;filter:url(#filter5153-3)"
       id="rect851-8-8"
       width="4881.7896"
       height="301.87814"
       x="2773.3823"
       y="1823.9081"
       transform="matrix(1,0,-0.1414171,0.9899501,-1496.6496,-5.6205881)" />
    <rect
       style="fill:#3ca9fd;fill-opacity:1;fill-rule:nonzero;stroke-width:13.2939;filter:url(#filter5153)"
       id="rect851-8"
       width="4881.7896"
       height="301.87814"
       x="2773.3823"
       y="1823.9081"
       transform="matrix(1,0,-0.1414171,0.9899501,-1516.4129,-30.03997)" />
    <g
       aria-label="RETROBAT"
       transform="matrix(1.0781694,0,0.0311088,0.927498,-1486.473,25.000072)"
       id="text848-3-8"
       style="font-style:normal;font-weight:normal;font-size:1832.5px;line-height:1.25;font-family:sans-serif;mix-blend-mode:normal;fill:#000000;fill-opacity:0.439216;stroke:none;stroke-width:0;stroke-miterlimit:4;stroke-dasharray:none;filter:url(#filter4892-2-8)">
      <path
         d="m 2867.749,1102.7069 q 19.6851,0 34.8963,-13.4216 15.2111,-12.5269 17.8955,-31.3172 l 60.8447,-331.96163 v -5.36865 q 0,-16.10596 -10.7373,-26.84326 -11.6321,-9.84253 -27.738,-9.84253 h -123.479 l -76.056,418.75487 z m 8.9478,189.6924 q 0,-15.2112 -10.7373,-25.9485 -10.7373,-10.7373 -25.9485,-10.7373 h -124.3738 l -100.2148,566.3928 H 2458.8367 L 2688.7939,538.99841 h 344.4886 q 46.5283,0 80.5298,34.00147 34.0014,33.10669 35.791,81.42456 0,4.47388 -3.5791,21.47461 l -71.5821,404.43845 q -17.0007,84.1089 -99.32,107.3731 31.3171,11.6321 47.4231,41.1596 12.5268,23.2642 12.5268,51.897 0,6.2634 -0.8948,13.4216 0,13.4217 -0.8947,20.5799 l -93.0567,507.3376 h -157.4804 l 93.9514,-525.2331 z"
         style="font-style:italic;font-variant:normal;font-weight:normal;font-stretch:normal;font-size:1832.5px;font-family:SNES;-inkscape-font-specification:'SNES, Italic';font-variant-ligatures:normal;font-variant-caps:normal;font-variant-numeric:normal;font-variant-east-asian:normal;fill:#000000;fill-opacity:0.439216;stroke-width:0;stroke-miterlimit:4;stroke-dasharray:none"
         id="path4398-6-8" />
      <path
         d="m 3280.2405,538.99841 h 348.0676 l -25.0537,144.95362 h -193.2715 l -72.4768,405.33327 h 192.3767 l -26.8432,143.164 h -191.482 l -79.635,446.493 h 189.6924 l -25.9485,143.164 h -348.0676 z"
         style="font-style:italic;font-variant:normal;font-weight:normal;font-stretch:normal;font-size:1832.5px;font-family:SNES;-inkscape-font-specification:'SNES, Italic';font-variant-ligatures:normal;font-variant-caps:normal;font-variant-numeric:normal;font-variant-east-asian:normal;fill:#000000;fill-opacity:0.439216;stroke-width:0;stroke-miterlimit:4;stroke-dasharray:none"
         id="path4400-9-8" />
      <path
         d="M 4052.4316,683.95203 H 3945.9534 L 3740.155,1822.1063 H 3583.5693 L 3791.1572,683.95203 h -110.0573 l 25.9484,-144.95362 h 373.1214 z"
         style="font-style:italic;font-variant:normal;font-weight:normal;font-stretch:normal;font-size:1832.5px;font-family:SNES;-inkscape-font-specification:'SNES, Italic';font-variant-ligatures:normal;font-variant-caps:normal;font-variant-numeric:normal;font-variant-east-asian:normal;fill:#000000;fill-opacity:0.439216;stroke-width:0;stroke-miterlimit:4;stroke-dasharray:none"
         id="path4402-0-7" />
      <path
         d="m 4334.2859,1102.7069 q 19.685,0 34.8962,-13.4216 15.2112,-12.5269 17.8955,-31.3172 l 60.8448,-331.96163 v -5.36865 q 0,-16.10596 -10.7373,-26.84326 -11.6321,-9.84253 -27.7381,-9.84253 h -123.479 l -76.0559,418.75487 z m 8.9477,189.6924 q 0,-15.2112 -10.7373,-25.9485 -10.7373,-10.7373 -25.9484,-10.7373 h -124.3738 l -100.2149,566.3928 H 3925.3735 L 4155.3308,538.99841 h 344.4885 q 46.5284,0 80.5298,34.00147 34.0015,33.10669 35.791,81.42456 0,4.47388 -3.5791,21.47461 l -71.582,404.43845 q -17.0007,84.1089 -99.3201,107.3731 31.3172,11.6321 47.4231,41.1596 12.5269,23.2642 12.5269,51.897 0,6.2634 -0.8948,13.4216 0,13.4217 -0.8948,20.5799 l -93.0566,507.3376 h -157.4805 l 93.9514,-525.2331 z"
         style="font-style:italic;font-variant:normal;font-weight:normal;font-stretch:normal;font-size:1832.5px;font-family:SNES;-inkscape-font-specification:'SNES, Italic';font-variant-ligatures:normal;font-variant-caps:normal;font-variant-numeric:normal;font-variant-east-asian:normal;fill:#000000;fill-opacity:0.439216;stroke-width:0;stroke-miterlimit:4;stroke-dasharray:none"
         id="path4404-1-7" />
      <path
         d="m 4671.6162,1640.4669 q 0,15.2112 10.7373,26.8433 10.7373,11.6321 26.8433,11.6321 h 82.3193 q 43.844,0 54.5813,-44.7388 l 163.7439,-908.19703 v -5.36865 q 0,-16.10596 -10.7373,-26.84326 -10.7373,-9.84253 -26.8433,-9.84253 h -83.2141 q -18.7903,0 -34.8962,12.52685 -15.2112,11.63208 -18.7903,29.52759 L 4671.6162,1635.993 Z M 5055.4749,538.99841 q 46.5283,0 79.635,34.00147 34.0014,34.00146 34.0014,82.31933 0,13.42163 -1.7895,20.57984 L 4982.998,1706.6803 q -9.8425,49.2126 -50.1074,82.3193 -40.2649,33.1067 -91.2671,33.1067 h -213.8513 q -47.4231,0 -80.5298,-34.0014 -33.1067,-34.0015 -33.1067,-81.4246 v -22.3694 L 4698.4595,655.31921 q 9.8425,-50.10742 49.2126,-83.21411 40.2649,-33.10669 90.3723,-33.10669 z"
         style="font-style:italic;font-variant:normal;font-weight:normal;font-stretch:normal;font-size:1832.5px;font-family:SNES;-inkscape-font-specification:'SNES, Italic';font-variant-ligatures:normal;font-variant-caps:normal;font-variant-numeric:normal;font-variant-east-asian:normal;fill:#000000;fill-opacity:0.439216;stroke-width:0;stroke-miterlimit:4;stroke-dasharray:none"
         id="path4406-0-4" />
      <path
         d="m 5585.1819,1705.7855 q -8.9478,50.1074 -48.3179,83.2141 -39.3701,33.1067 -90.3723,33.1067 H 5090.3711 L 5323.0127,538.99841 h 337.3303 q 47.4231,0 80.5298,34.00147 34.0015,34.00146 34.0015,82.31933 0,6.26343 -2.6844,20.57984 l -75.1611,404.43845 q -17.0007,84.1089 -99.3201,107.3731 31.3172,11.6321 47.4231,41.1596 12.5269,23.2642 12.5269,51.897 0,6.2634 -0.8948,13.4216 0,13.4217 -0.8948,20.5799 z m 30.4223,-979.77903 v -5.36865 q 0,-16.10596 -10.7373,-26.84326 -10.7373,-9.84253 -25.9484,-9.84253 h -127.9529 l -76.0559,418.75487 h 124.3737 q 19.6851,0 34.8963,-13.4216 15.2112,-12.5269 17.8955,-31.3172 z m -268.4326,529.70703 -76.0559,422.334 h 123.479 q 19.6851,0 34.8963,-12.5269 15.2111,-11.6321 17.8955,-30.4223 l 60.8447,-338.2251 v -4.4739 q 0,-15.2112 -10.7373,-25.9485 -10.7373,-10.7373 -25.9485,-10.7373 z"
         style="font-style:italic;font-variant:normal;font-weight:normal;font-stretch:normal;font-size:1832.5px;font-family:SNES;-inkscape-font-specification:'SNES, Italic';font-variant-ligatures:normal;font-variant-caps:normal;font-variant-numeric:normal;font-variant-east-asian:normal;fill:#000000;fill-opacity:0.439216;stroke-width:0;stroke-miterlimit:4;stroke-dasharray:none"
         id="path4408-5-5" />
      <path
         d="m 6056.7285,1465.9857 56.3709,-568.18236 -195.9558,568.18236 z m -189.6924,144.9536 -72.4768,211.167 H 5630.8154 L 6113.9941,538.99841 h 153.9014 L 6167.6807,1822.1063 h -145.8484 l 20.5798,-211.167 z"
         style="font-style:italic;font-variant:normal;font-weight:normal;font-stretch:normal;font-size:1832.5px;font-family:SNES;-inkscape-font-specification:'SNES, Italic';font-variant-ligatures:normal;font-variant-caps:normal;font-variant-numeric:normal;font-variant-east-asian:normal;fill:#000000;fill-opacity:0.439216;stroke-width:0;stroke-miterlimit:4;stroke-dasharray:none"
         id="path4410-6-3" />
      <path
         d="M 6803.866,683.95203 H 6697.3877 L 6491.5894,1822.1063 H 6335.0037 L 6542.5916,683.95203 h -110.0574 l 25.9485,-144.95362 h 373.1213 z"
         style="font-style:italic;font-variant:normal;font-weight:normal;font-stretch:normal;font-size:1832.5px;font-family:SNES;-inkscape-font-specification:'SNES, Italic';font-variant-ligatures:normal;font-variant-caps:normal;font-variant-numeric:normal;font-variant-east-asian:normal;fill:#000000;fill-opacity:0.439216;stroke-width:0;stroke-miterlimit:4;stroke-dasharray:none"
         id="path4412-8-8" />
    </g>
    <g
       aria-label="RETROBAT"
       transform="matrix(1.0781694,0,0.0311088,0.927498,-1503.8342,-0.16345812)"
       id="text848-3"
       style="font-style:normal;font-weight:normal;font-size:1832.5px;line-height:1.25;font-family:sans-serif;fill:#3ca9fd;fill-opacity:1;stroke:none;stroke-width:0;stroke-miterlimit:4;stroke-dasharray:none;filter:url(#filter4892-2)">
      <path
         d="m 2867.749,1102.7069 q 19.6851,0 34.8963,-13.4216 15.2111,-12.5269 17.8955,-31.3172 l 60.8447,-331.96163 v -5.36865 q 0,-16.10596 -10.7373,-26.84326 -11.6321,-9.84253 -27.738,-9.84253 h -123.479 l -76.056,418.75487 z m 8.9478,189.6924 q 0,-15.2112 -10.7373,-25.9485 -10.7373,-10.7373 -25.9485,-10.7373 h -124.3738 l -100.2148,566.3928 H 2458.8367 L 2688.7939,538.99841 h 344.4886 q 46.5283,0 80.5298,34.00147 34.0014,33.10669 35.791,81.42456 0,4.47388 -3.5791,21.47461 l -71.5821,404.43845 q -17.0007,84.1089 -99.32,107.3731 31.3171,11.6321 47.4231,41.1596 12.5268,23.2642 12.5268,51.897 0,6.2634 -0.8948,13.4216 0,13.4217 -0.8947,20.5799 l -93.0567,507.3376 h -157.4804 l 93.9514,-525.2331 z"
         style="font-style:italic;font-variant:normal;font-weight:normal;font-stretch:normal;font-size:1832.5px;font-family:SNES;-inkscape-font-specification:'SNES, Italic';font-variant-ligatures:normal;font-variant-caps:normal;font-variant-numeric:normal;font-variant-east-asian:normal;fill:#3ca9fd;fill-opacity:1;stroke-width:0;stroke-miterlimit:4;stroke-dasharray:none"
         id="path4398-6" />
      <path
         d="m 3280.2405,538.99841 h 348.0676 l -25.0537,144.95362 h -193.2715 l -72.4768,405.33327 h 192.3767 l -26.8432,143.164 h -191.482 l -79.635,446.493 h 189.6924 l -25.9485,143.164 h -348.0676 z"
         style="font-style:italic;font-variant:normal;font-weight:normal;font-stretch:normal;font-size:1832.5px;font-family:SNES;-inkscape-font-specification:'SNES, Italic';font-variant-ligatures:normal;font-variant-caps:normal;font-variant-numeric:normal;font-variant-east-asian:normal;fill:#3ca9fd;fill-opacity:1;stroke-width:0;stroke-miterlimit:4;stroke-dasharray:none"
         id="path4400-9" />
      <path
         d="M 4052.4316,683.95203 H 3945.9534 L 3740.155,1822.1063 H 3583.5693 L 3791.1572,683.95203 h -110.0573 l 25.9484,-144.95362 h 373.1214 z"
         style="font-style:italic;font-variant:normal;font-weight:normal;font-stretch:normal;font-size:1832.5px;font-family:SNES;-inkscape-font-specification:'SNES, Italic';font-variant-ligatures:normal;font-variant-caps:normal;font-variant-numeric:normal;font-variant-east-asian:normal;fill:#3ca9fd;fill-opacity:1;stroke-width:0;stroke-miterlimit:4;stroke-dasharray:none"
         id="path4402-0" />
      <path
         d="m 4334.2859,1102.7069 q 19.685,0 34.8962,-13.4216 15.2112,-12.5269 17.8955,-31.3172 l 60.8448,-331.96163 v -5.36865 q 0,-16.10596 -10.7373,-26.84326 -11.6321,-9.84253 -27.7381,-9.84253 h -123.479 l -76.0559,418.75487 z m 8.9477,189.6924 q 0,-15.2112 -10.7373,-25.9485 -10.7373,-10.7373 -25.9484,-10.7373 h -124.3738 l -100.2149,566.3928 H 3925.3735 L 4155.3308,538.99841 h 344.4885 q 46.5284,0 80.5298,34.00147 34.0015,33.10669 35.791,81.42456 0,4.47388 -3.5791,21.47461 l -71.582,404.43845 q -17.0007,84.1089 -99.3201,107.3731 31.3172,11.6321 47.4231,41.1596 12.5269,23.2642 12.5269,51.897 0,6.2634 -0.8948,13.4216 0,13.4217 -0.8948,20.5799 l -93.0566,507.3376 h -157.4805 l 93.9514,-525.2331 z"
         style="font-style:italic;font-variant:normal;font-weight:normal;font-stretch:normal;font-size:1832.5px;font-family:SNES;-inkscape-font-specification:'SNES, Italic';font-variant-ligatures:normal;font-variant-caps:normal;font-variant-numeric:normal;font-variant-east-asian:normal;fill:#3ca9fd;fill-opacity:1;stroke-width:0;stroke-miterlimit:4;stroke-dasharray:none"
         id="path4404-1" />
      <path
         d="m 4671.6162,1640.4669 q 0,15.2112 10.7373,26.8433 10.7373,11.6321 26.8433,11.6321 h 82.3193 q 43.844,0 54.5813,-44.7388 l 163.7439,-908.19703 v -5.36865 q 0,-16.10596 -10.7373,-26.84326 -10.7373,-9.84253 -26.8433,-9.84253 h -83.2141 q -18.7903,0 -34.8962,12.52685 -15.2112,11.63208 -18.7903,29.52759 L 4671.6162,1635.993 Z M 5055.4749,538.99841 q 46.5283,0 79.635,34.00147 34.0014,34.00146 34.0014,82.31933 0,13.42163 -1.7895,20.57984 L 4982.998,1706.6803 q -9.8425,49.2126 -50.1074,82.3193 -40.2649,33.1067 -91.2671,33.1067 h -213.8513 q -47.4231,0 -80.5298,-34.0014 -33.1067,-34.0015 -33.1067,-81.4246 v -22.3694 L 4698.4595,655.31921 q 9.8425,-50.10742 49.2126,-83.21411 40.2649,-33.10669 90.3723,-33.10669 z"
         style="font-style:italic;font-variant:normal;font-weight:normal;font-stretch:normal;font-size:1832.5px;font-family:SNES;-inkscape-font-specification:'SNES, Italic';font-variant-ligatures:normal;font-variant-caps:normal;font-variant-numeric:normal;font-variant-east-asian:normal;fill:#3ca9fd;fill-opacity:1;stroke-width:0;stroke-miterlimit:4;stroke-dasharray:none"
         id="path4406-0" />
      <path
         d="m 5585.1819,1705.7855 q -8.9478,50.1074 -48.3179,83.2141 -39.3701,33.1067 -90.3723,33.1067 H 5090.3711 L 5323.0127,538.99841 h 337.3303 q 47.4231,0 80.5298,34.00147 34.0015,34.00146 34.0015,82.31933 0,6.26343 -2.6844,20.57984 l -75.1611,404.43845 q -17.0007,84.1089 -99.3201,107.3731 31.3172,11.6321 47.4231,41.1596 12.5269,23.2642 12.5269,51.897 0,6.2634 -0.8948,13.4216 0,13.4217 -0.8948,20.5799 z m 30.4223,-979.77903 v -5.36865 q 0,-16.10596 -10.7373,-26.84326 -10.7373,-9.84253 -25.9484,-9.84253 h -127.9529 l -76.0559,418.75487 h 124.3737 q 19.6851,0 34.8963,-13.4216 15.2112,-12.5269 17.8955,-31.3172 z m -268.4326,529.70703 -76.0559,422.334 h 123.479 q 19.6851,0 34.8963,-12.5269 15.2111,-11.6321 17.8955,-30.4223 l 60.8447,-338.2251 v -4.4739 q 0,-15.2112 -10.7373,-25.9485 -10.7373,-10.7373 -25.9485,-10.7373 z"
         style="font-style:italic;font-variant:normal;font-weight:normal;font-stretch:normal;font-size:1832.5px;font-family:SNES;-inkscape-font-specification:'SNES, Italic';font-variant-ligatures:normal;font-variant-caps:normal;font-variant-numeric:normal;font-variant-east-asian:normal;fill:#3ca9fd;fill-opacity:1;stroke-width:0;stroke-miterlimit:4;stroke-dasharray:none"
         id="path4408-5" />
      <path
         d="m 6056.7285,1465.9857 56.3709,-568.18236 -195.9558,568.18236 z m -189.6924,144.9536 -72.4768,211.167 H 5630.8154 L 6113.9941,538.99841 h 153.9014 L 6167.6807,1822.1063 h -145.8484 l 20.5798,-211.167 z"
         style="font-style:italic;font-variant:normal;font-weight:normal;font-stretch:normal;font-size:1832.5px;font-family:SNES;-inkscape-font-specification:'SNES, Italic';font-variant-ligatures:normal;font-variant-caps:normal;font-variant-numeric:normal;font-variant-east-asian:normal;fill:#3ca9fd;fill-opacity:1;stroke-width:0;stroke-miterlimit:4;stroke-dasharray:none"
         id="path4410-6" />
      <path
         d="M 6803.866,683.95203 H 6697.3877 L 6491.5894,1822.1063 H 6335.0037 L 6542.5916,683.95203 h -110.0574 l 25.9485,-144.95362 h 373.1213 z"
         style="font-style:italic;font-variant:normal;font-weight:normal;font-stretch:normal;font-size:1832.5px;font-family:SNES;-inkscape-font-specification:'SNES, Italic';font-variant-ligatures:normal;font-variant-caps:normal;font-variant-numeric:normal;font-variant-east-asian:normal;fill:#3ca9fd;fill-opacity:1;stroke-width:0;stroke-miterlimit:4;stroke-dasharray:none"
         id="path4412-8" />
    </g>
    <rect
       style="fill:none;fill-opacity:0.25098;fill-rule:nonzero;stroke-width:13.2939"
       id="rect851"
       width="4881.7896"
       height="301.87814"
       x="1237.6613"
       y="1767.3331"
       transform="matrix(1,0,-0.14141713,0.9899501,0,0)" />
    <g
       aria-label="RETROBAT"
       transform="matrix(1.0781694,0,0.03110881,0.92749804,360,24.999999)"
       id="text848"
       style="font-style:normal;font-weight:normal;font-size:1832.5px;line-height:1.25;font-family:sans-serif;fill:none;fill-opacity:0.25098;stroke:none;stroke-width:0;stroke-miterlimit:4;stroke-dasharray:none;filter:url(#filter4892)">
      <path
         d="m 2867.749,1102.7069 q 19.6851,0 34.8963,-13.4216 15.2111,-12.5269 17.8955,-31.3172 l 60.8447,-331.96163 v -5.36865 q 0,-16.10596 -10.7373,-26.84326 -11.6321,-9.84253 -27.738,-9.84253 h -123.479 l -76.056,418.75487 z m 8.9478,189.6924 q 0,-15.2112 -10.7373,-25.9485 -10.7373,-10.7373 -25.9485,-10.7373 h -124.3738 l -100.2148,566.3928 H 2458.8367 L 2688.7939,538.99841 h 344.4886 q 46.5283,0 80.5298,34.00147 34.0014,33.10669 35.791,81.42456 0,4.47388 -3.5791,21.47461 l -71.5821,404.43845 q -17.0007,84.1089 -99.32,107.3731 31.3171,11.6321 47.4231,41.1596 12.5268,23.2642 12.5268,51.897 0,6.2634 -0.8948,13.4216 0,13.4217 -0.8947,20.5799 l -93.0567,507.3376 h -157.4804 l 93.9514,-525.2331 z"
         style="font-style:italic;font-variant:normal;font-weight:normal;font-stretch:normal;font-size:1832.5px;font-family:SNES;-inkscape-font-specification:'SNES, Italic';font-variant-ligatures:normal;font-variant-caps:normal;font-variant-numeric:normal;font-variant-east-asian:normal;fill:none;fill-opacity:0.25098;stroke-width:0;stroke-miterlimit:4;stroke-dasharray:none"
         id="path4398" />
      <path
         d="m 3280.2405,538.99841 h 348.0676 l -25.0537,144.95362 h -193.2715 l -72.4768,405.33327 h 192.3767 l -26.8432,143.164 h -191.482 l -79.635,446.493 h 189.6924 l -25.9485,143.164 h -348.0676 z"
         style="font-style:italic;font-variant:normal;font-weight:normal;font-stretch:normal;font-size:1832.5px;font-family:SNES;-inkscape-font-specification:'SNES, Italic';font-variant-ligatures:normal;font-variant-caps:normal;font-variant-numeric:normal;font-variant-east-asian:normal;fill:none;fill-opacity:0.25098;stroke-width:0;stroke-miterlimit:4;stroke-dasharray:none"
         id="path4400" />
      <path
         d="M 4052.4316,683.95203 H 3945.9534 L 3740.155,1822.1063 H 3583.5693 L 3791.1572,683.95203 h -110.0573 l 25.9484,-144.95362 h 373.1214 z"
         style="font-style:italic;font-variant:normal;font-weight:normal;font-stretch:normal;font-size:1832.5px;font-family:SNES;-inkscape-font-specification:'SNES, Italic';font-variant-ligatures:normal;font-variant-caps:normal;font-variant-numeric:normal;font-variant-east-asian:normal;fill:none;fill-opacity:0.25098;stroke-width:0;stroke-miterlimit:4;stroke-dasharray:none"
         id="path4402" />
      <path
         d="m 4334.2859,1102.7069 q 19.685,0 34.8962,-13.4216 15.2112,-12.5269 17.8955,-31.3172 l 60.8448,-331.96163 v -5.36865 q 0,-16.10596 -10.7373,-26.84326 -11.6321,-9.84253 -27.7381,-9.84253 h -123.479 l -76.0559,418.75487 z m 8.9477,189.6924 q 0,-15.2112 -10.7373,-25.9485 -10.7373,-10.7373 -25.9484,-10.7373 h -124.3738 l -100.2149,566.3928 H 3925.3735 L 4155.3308,538.99841 h 344.4885 q 46.5284,0 80.5298,34.00147 34.0015,33.10669 35.791,81.42456 0,4.47388 -3.5791,21.47461 l -71.582,404.43845 q -17.0007,84.1089 -99.3201,107.3731 31.3172,11.6321 47.4231,41.1596 12.5269,23.2642 12.5269,51.897 0,6.2634 -0.8948,13.4216 0,13.4217 -0.8948,20.5799 l -93.0566,507.3376 h -157.4805 l 93.9514,-525.2331 z"
         style="font-style:italic;font-variant:normal;font-weight:normal;font-stretch:normal;font-size:1832.5px;font-family:SNES;-inkscape-font-specification:'SNES, Italic';font-variant-ligatures:normal;font-variant-caps:normal;font-variant-numeric:normal;font-variant-east-asian:normal;fill:none;fill-opacity:0.25098;stroke-width:0;stroke-miterlimit:4;stroke-dasharray:none"
         id="path4404" />
      <path
         d="m 4671.6162,1640.4669 q 0,15.2112 10.7373,26.8433 10.7373,11.6321 26.8433,11.6321 h 82.3193 q 43.844,0 54.5813,-44.7388 l 163.7439,-908.19703 v -5.36865 q 0,-16.10596 -10.7373,-26.84326 -10.7373,-9.84253 -26.8433,-9.84253 h -83.2141 q -18.7903,0 -34.8962,12.52685 -15.2112,11.63208 -18.7903,29.52759 L 4671.6162,1635.993 Z M 5055.4749,538.99841 q 46.5283,0 79.635,34.00147 34.0014,34.00146 34.0014,82.31933 0,13.42163 -1.7895,20.57984 L 4982.998,1706.6803 q -9.8425,49.2126 -50.1074,82.3193 -40.2649,33.1067 -91.2671,33.1067 h -213.8513 q -47.4231,0 -80.5298,-34.0014 -33.1067,-34.0015 -33.1067,-81.4246 v -22.3694 L 4698.4595,655.31921 q 9.8425,-50.10742 49.2126,-83.21411 40.2649,-33.10669 90.3723,-33.10669 z"
         style="font-style:italic;font-variant:normal;font-weight:normal;font-stretch:normal;font-size:1832.5px;font-family:SNES;-inkscape-font-specification:'SNES, Italic';font-variant-ligatures:normal;font-variant-caps:normal;font-variant-numeric:normal;font-variant-east-asian:normal;fill:none;fill-opacity:0.25098;stroke-width:0;stroke-miterlimit:4;stroke-dasharray:none"
         id="path4406" />
      <path
         d="m 5585.1819,1705.7855 q -8.9478,50.1074 -48.3179,83.2141 -39.3701,33.1067 -90.3723,33.1067 H 5090.3711 L 5323.0127,538.99841 h 337.3303 q 47.4231,0 80.5298,34.00147 34.0015,34.00146 34.0015,82.31933 0,6.26343 -2.6844,20.57984 l -75.1611,404.43845 q -17.0007,84.1089 -99.3201,107.3731 31.3172,11.6321 47.4231,41.1596 12.5269,23.2642 12.5269,51.897 0,6.2634 -0.8948,13.4216 0,13.4217 -0.8948,20.5799 z m 30.4223,-979.77903 v -5.36865 q 0,-16.10596 -10.7373,-26.84326 -10.7373,-9.84253 -25.9484,-9.84253 h -127.9529 l -76.0559,418.75487 h 124.3737 q 19.6851,0 34.8963,-13.4216 15.2112,-12.5269 17.8955,-31.3172 z m -268.4326,529.70703 -76.0559,422.334 h 123.479 q 19.6851,0 34.8963,-12.5269 15.2111,-11.6321 17.8955,-30.4223 l 60.8447,-338.2251 v -4.4739 q 0,-15.2112 -10.7373,-25.9485 -10.7373,-10.7373 -25.9485,-10.7373 z"
         style="font-style:italic;font-variant:normal;font-weight:normal;font-stretch:normal;font-size:1832.5px;font-family:SNES;-inkscape-font-specification:'SNES, Italic';font-variant-ligatures:normal;font-variant-caps:normal;font-variant-numeric:normal;font-variant-east-asian:normal;fill:none;fill-opacity:0.25098;stroke-width:0;stroke-miterlimit:4;stroke-dasharray:none"
         id="path4408" />
      <path
         d="m 6056.7285,1465.9857 56.3709,-568.18236 -195.9558,568.18236 z m -189.6924,144.9536 -72.4768,211.167 H 5630.8154 L 6113.9941,538.99841 h 153.9014 L 6167.6807,1822.1063 h -145.8484 l 20.5798,-211.167 z"
         style="font-style:italic;font-variant:normal;font-weight:normal;font-stretch:normal;font-size:1832.5px;font-family:SNES;-inkscape-font-specification:'SNES, Italic';font-variant-ligatures:normal;font-variant-caps:normal;font-variant-numeric:normal;font-variant-east-asian:normal;fill:none;fill-opacity:0.25098;stroke-width:0;stroke-miterlimit:4;stroke-dasharray:none"
         id="path4410" />
      <path
         d="M 6803.866,683.95203 H 6697.3877 L 6491.5894,1822.1063 H 6335.0037 L 6542.5916,683.95203 h -110.0574 l 25.9485,-144.95362 h 373.1213 z"
         style="font-style:italic;font-variant:normal;font-weight:normal;font-stretch:normal;font-size:1832.5px;font-family:SNES;-inkscape-font-specification:'SNES, Italic';font-variant-ligatures:normal;font-variant-caps:normal;font-variant-numeric:normal;font-variant-east-asian:normal;fill:none;fill-opacity:0.25098;stroke-width:0;stroke-miterlimit:4;stroke-dasharray:none"
         id="path4412" />
    </g>
  </g>
</svg>
